<svg xmlns="http://www.w3.org/2000/svg" xmlns:xlink="http://www.w3.org/1999/xlink" aria-hidden="true" role="img" class="iconify iconify--logos" width="31.88" height="32" preserveAspectRatio="xMidYMid meet" viewBox="0 0 256 257"><defs><linearGradient id="IconifyId1813088fe1fbc01fb466" x1="-.828%" x2="57.636%" y1="7.652%" y2="78.411%"><stop offset="0%" stop-color="#41D1FF"></stop><stop offset="100%" stop-color="#BD34FE"></stop></linearGradient><linearGradient id="IconifyId1813088fe1fbc01fb467" x1="43.376%" x2="50.316%" y1="2.242%" y2="89.03%"><stop offset="0%" stop-color="#FFEA83"></stop><stop offset="8.333%" stop-color="#FFDD35"></stop><stop offset="100%" stop-color="#FFA800"></stop></linearGradient></defs><path fill="url(#IconifyId1813088fe1fbc01fb466)" d="M255.153 37.938L134.897 252.976c-2.483 4.44-8.862 4.466-11.382.048L.875 37.958c-2.746-4.814 1.371-10.646 6.827-9.67l120.385 21.517a6.537 6.537 0 0 0 2.322-.004l117.867-21.483c5.438-.991 9.666 4.996 6.877 10.72z"></path><path fill="url(#IconifyId1813088fe1fbc01fb467)" d="M185.432.063L96.44 17.501a3.268 3.268 0 0 0-2.634 3.014l-5.474 92.456a3.268 3.268 0 0 0 3.997 3.378l24.777-5.718c2.318-.535 4.413 1.507 3.936 3.838l-7.361 36.047c-.495 2.426 1.782 4.5 4.151 3.78l15.304-4.649c2.372-.72 4.652 1.36 4.15 3.788l-11.698 56.621c-.732 3.542 3.979 5.473 5.943 2.437l1.313-2.028l72.516-144.72c1.215-2.423-.88-5.186-3.54-4.672l-25.505 4.922c-2.396.462-4.435-1.77-3.829-4.114l16.699-57.192c.561-1.923 1.582-3.726 3.395-4.843c1.812-1.115 4.026-1.315 6.033-.76l38.563 12.354c3.728 1.194 4.268 6.568 1.04 8.501l-28.771 22.332c-2 1.553-2.43 4.373-1.006 6.575l12.338 17.79c1.786 2.577 5.638 2.103 6.825-1.006l15.641-40.334c1.254-3.234 5.839-3.779 7.722-.873l25.09 39.668c1.822 2.88-.143 6.688-3.672 6.553l-38.589-1.497c-2.603-.101-4.826 1.85-4.625 4.448l5.302 60.325a3.268 3.268 0 0 0 3.803 2.925l24.638-4.744c3.541-.681 6.256 3.583 3.836 6.674l-53.306 69.598c-2.268 2.959-7.165 1.477-7.22-2.063l-2.273-42.602c-.063-2.444-2.234-4.479-4.676-4.216l-26.094 2.809c-2.552.275-4.789-1.859-4.246-4.363l18.206-85.518c.622-2.92-2.09-5.542-4.995-4.75l-30.624 8.22c-3.455.927-5.46 4.608-4.254 7.973l20.157 58.541c1.134 3.293-2.334 6.418-5.463 4.917L99.972 105.753c-3.225-1.54-6.932.849-6.156 4.347l14.375 64.66c.654 2.941-1.889 5.659-4.853 4.97l-29.422-6.856c-3.393-.791-6.188 3.14-3.993 6.084l34.63 46.537c2.12 2.85 6.822.979 6.712-2.703l-3.667-105.93a3.268 3.268 0 0 0-3.447-3.1l-36.752 2.867c-3.64.284-5.628 4.427-3.683 7.68l48.452 80.947c1.931 3.225-.594 7.244-4.369 6.071L45.791 204.275c-3.536-1.107-6.488 3.318-3.87 6.212l46.036 48.379c2.563 2.694 7.012-.634 6.055-4.305L86.762 146.154c-.807-3.101 2.168-5.85 5.159-4.614l54.956 22.447c3.382 1.38 6.84-1.518 5.338-4.958l-24.428-57.753a3.268 3.268 0 0 1 1.48-4.467l64.845-29.599c3.446-1.573 3.555-6.565.2-8.27l-27.661-13.97c-2.619-1.323-3.9-4.528-2.5-7.258l31.898-67.643c1.674-3.55 6.942-2.894 7.657 1.127z"></path></svg>





